# Made using Asset Forge (www.assetforge.io) version 1.3 

mtllib key.model.mtl 

v 0.25 0.015 -1.233013
v 0.25 1.240785E-17 -1.233013
v 0.3535534 0.015 -1.153553
v 0.3535534 1.240785E-17 -1.153553
v -0.2500001 0.015 -1.233013
v -0.2500001 2.48157E-17 -1.233013
v -0.1294096 0.015 -1.282963
v -0.1294096 2.48157E-17 -1.282963
v -0.4330128 2.48157E-17 -1.05
v -0.3535534 2.48157E-17 -1.153553
v -0.4330128 0.015 -1.05
v -0.3535534 0.015 -1.153553
v -0.482963 2.48157E-17 -0.9294095
v -0.482963 0.015 -0.9294095
v 0.4330128 1.240785E-17 -1.05
v 0.4330128 0.015 -1.05
v 0.482963 1.240785E-17 -0.9294096
v 0.482963 0.015 -0.9294096
v 0.5000001 0 -0.3000001
v 0.5000001 0.015 -0.3000001
v 0.5000001 1.240785E-17 -0.8000001
v 0.5000001 0.015 -0.8000001
v -5.960464E-08 0.015 -1.3
v -5.960464E-08 1.579181E-17 -1.3
v 0.1294095 0.015 -1.282963
v 0.1294095 1.240785E-17 -1.282963
v -0.5 0 -0.2999999
v -0.5000001 2.48157E-17 -0.8
v -0.5 0.015 -0.2999999
v -0.5000001 0.015 -0.8
v -5.960464E-08 0.1 -1.3
v 0.1294095 0.1 -1.282963
v -0.1294096 0.1 -1.282963
v -0.2500001 0.1 -1.233013
v 0.25 0.1 -1.233013
v -0.3535534 0.1 -1.153553
v 0.3535534 0.1 -1.153553
v 0.4330128 0.1 -1.05
v -0.4330128 0.1 -1.05
v -0.482963 0.1 -0.9294095
v 0.482963 0.1 -0.9294096
v -0.5000001 0.1 -0.8
v 0.5000001 0.1 -0.8000001
v -0.5 0.1 -0.2999999
v 0.5000001 0.1 -0.3000001
vn 0.4999999 0 -0.8660256
vn 0.5374874 0 -0.843272
vn 0.7071068 0 -0.7071068
vn 0.7071068 0 -0.7071069
vn -0.5000001 0 -0.8660256
vn -0.4615511 0 -0.8871138
vn -0.258819 0 -0.9659259
vn -0.2162222 0 -0.9763443
vn -0.8871139 0 -0.4615509
vn -0.7071069 0 -0.7071068
vn -0.8660256 0 -0.4999999
vn -0.9763443 0 -0.2162219
vn -0.9659259 0 -0.2588189
vn 0.8432719 0 -0.5374877
vn 0.8660256 0 -0.5000001
vn 0.95365 0 -0.3009183
vn 0.9659259 0 -0.2588191
vn 1 0 -1.192093E-07
vn 0.9978591 0 -0.06540328
vn -1.192093E-07 0 -1
vn 0.04384186 0 -0.9990386
vn 0.2588189 0 -0.9659259
vn 0.3009181 0 -0.9536501
vn -1 0 1.192093E-07
vn -0.9990495 0 -0.04359156
vn -0.9978591 0 -0.06540304
vn 1.192093E-07 0 1
vn 0 0.1 0
vn -0.5374877 0 -0.8432719
vn -0.3009183 0 -0.95365
vn 0.216222 0 -0.9763444
vn 0.4615509 0 -0.8871139
vn -0.0438421 0 -0.9990386
vn -0.9961923 0 -0.08718324
vn -0.9536501 0 -0.300918
vn -0.843272 0 -0.5374874
vn 0.7071068 0 -0.7071069
vn 0.9763443 0 -0.2162222
vn 0.8871138 0 -0.461551
vn 0 -0.1 0
vt -0.25 0.015
vt -0.25 1.240785E-17
vt -0.3535534 0.015
vt -0.3535534 1.240785E-17
vt 0.2500001 0.015
vt 0.2500001 2.48157E-17
vt 0.1294096 0.015
vt 0.1294096 2.48157E-17
vt -1.05 2.48157E-17
vt -1.153553 2.48157E-17
vt -1.05 0.015
vt -1.153553 0.015
vt -0.9294095 2.48157E-17
vt -0.9294095 0.015
vt 1.153553 1.240785E-17
vt 1.05 1.240785E-17
vt 1.153553 0.015
vt 1.05 0.015
vt 0.9294096 1.240785E-17
vt 0.9294096 0.015
vt 0.3 0
vt 0.3 0.015
vt 0.8000001 1.240785E-17
vt 0.8000001 0.015
vt 5.960464E-08 0.015
vt 5.960464E-08 1.579181E-17
vt -0.1294095 0.015
vt -0.1294095 1.240785E-17
vt -0.2999999 0
vt -0.8 2.48157E-17
vt -0.2999999 0.015
vt -0.8 0.015
vt 0.3535535 0.015
vt 0.3535535 2.48157E-17
vt -0.5 0
vt -0.5 0.015
vt 0.5000001 0
vt 0.5000001 0.015
vt 5.960464E-08 -1.3
vt -0.1294095 -1.282963
vt 0.1294096 -1.282963
vt 0.2500001 -1.233013
vt -0.25 -1.233013
vt 0.3535535 -1.153553
vt -0.3535534 -1.153553
vt -0.4330128 -1.05
vt 0.4330128 -1.05
vt 0.482963 -0.9294095
vt -0.4829629 -0.9294096
vt 0.5000001 -0.8
vt -0.5000001 -0.8000001
vt 0.5 -0.2999999
vt -0.5000001 -0.3
vt 0.2500001 0.1
vt 0.1294096 0.1
vt -0.1294095 0.1
vt -0.25 0.1
vt 5.960464E-08 0.1
vt -0.8 0.1
vt -0.9294095 0.1
vt -1.05 0.1
vt -1.153553 0.1
vt 0.3 0.1
vt 0.8000001 0.1
vt 0.3535535 0.1
vt -0.2999999 0.1
vt -0.3535534 0.1
vt 0.9294096 0.1
vt 1.153553 0.1
vt 1.05 0.1
vt 5.960464E-08 1.3
vt 0.1294096 1.282963
vt -0.1294095 1.282963
vt -0.25 1.233013
vt 0.2500001 1.233013
vt -0.3535534 1.153553
vt 0.3535535 1.153553
vt -0.4330128 1.05
vt 0.4330128 1.05
vt -0.4829629 0.9294096
vt 0.482963 0.9294095
vt -0.5000001 0.8000001
vt 0.5000001 0.8
vt -0.5000001 0.3
vt 0.5 0.2999999
vt -0.5 0.1
vt 0.5000001 0.1

usemtl border (Instance)
usemap border (Instance)
f 3/3/3 2/2/2 1/1/1
f 2/2/2 3/3/3 4/4/4
f 7/7/7 6/6/6 5/5/5
f 6/6/6 7/7/7 8/8/8
f 11/11/11 10/10/10 9/9/9
f 10/10/10 11/11/11 12/12/10
f 14/14/13 9/9/9 13/13/12
f 9/9/9 14/14/13 11/11/11
f 3/17/3 15/16/14 4/15/4
f 15/16/14 3/17/3 16/18/15
f 16/18/15 17/19/16 15/16/14
f 17/19/16 16/18/15 18/20/17
f 21/23/19 20/22/18 19/21/18
f 20/22/18 21/23/19 22/24/19
f 25/27/22 24/26/21 23/25/20
f 24/26/21 25/27/22 26/28/23
f 29/31/24 28/30/25 27/29/24
f 28/30/25 29/31/24 30/32/26
f 5/5/5 10/34/10 12/33/10
f 10/34/10 5/5/5 6/6/6
f 18/20/17 21/23/19 17/19/16
f 21/23/19 18/20/17 22/24/19
f 1/1/1 26/28/23 25/27/22
f 26/28/23 1/1/1 2/2/2
f 23/25/20 8/8/8 7/7/7
f 8/8/8 23/25/20 24/26/21
f 30/32/26 13/13/12 28/30/25
f 13/13/12 30/32/26 14/14/13
f 19/37/27 29/36/27 27/35/27
f 29/36/27 19/37/27 20/38/27

usemtl bricks (Instance)
usemap bricks (Instance)
f 33/41/28 32/40/28 31/39/28
f 32/40/28 33/41/28 34/42/28
f 32/40/28 34/42/28 35/43/28
f 35/43/28 34/42/28 36/44/28
f 35/43/28 36/44/28 37/45/28
f 37/45/28 36/44/28 38/46/28
f 38/46/28 36/44/28 39/47/28
f 38/46/28 39/47/28 40/48/28
f 38/46/28 40/48/28 41/49/28
f 41/49/28 40/48/28 42/50/28
f 41/49/28 42/50/28 43/51/28
f 43/51/28 42/50/28 44/52/28
f 43/51/28 44/52/28 45/53/28
f 33/55/30 5/5/5 34/54/29
f 5/5/5 33/55/30 7/7/7
f 35/57/32 25/27/22 32/56/31
f 25/27/22 35/57/32 1/1/1
f 32/56/31 23/25/20 31/58/33
f 23/25/20 32/56/31 25/27/22
f 42/59/34 14/14/13 30/32/26
f 14/14/13 42/59/34 40/60/35
f 39/61/36 12/12/10 11/11/11
f 12/12/10 39/61/36 36/62/10
f 22/24/19 45/63/18 20/22/18
f 45/63/18 22/24/19 43/64/19
f 34/54/29 12/33/10 36/65/10
f 12/33/10 34/54/29 5/5/5
f 44/66/24 30/32/26 29/31/24
f 30/32/26 44/66/24 42/59/34
f 37/67/37 1/1/1 35/57/32
f 1/1/1 37/67/37 3/3/3
f 40/60/35 11/11/11 14/14/13
f 11/11/11 40/60/35 39/61/36
f 41/68/38 22/24/19 18/20/17
f 22/24/19 41/68/38 43/64/19
f 37/69/37 16/18/15 3/17/3
f 16/18/15 37/69/37 38/70/39
f 38/70/39 18/20/17 16/18/15
f 18/20/17 38/70/39 41/68/38
f 31/58/33 7/7/7 33/55/30
f 7/7/7 31/58/33 23/25/20
f 26/73/40 8/72/40 24/71/40
f 8/72/40 26/73/40 2/74/40
f 8/72/40 2/74/40 6/75/40
f 6/75/40 2/74/40 4/76/40
f 6/75/40 4/76/40 10/77/40
f 10/77/40 4/76/40 15/78/40
f 10/77/40 15/78/40 9/79/40
f 9/79/40 15/78/40 17/80/40
f 9/79/40 17/80/40 13/81/40
f 13/81/40 17/80/40 21/82/40
f 13/81/40 21/82/40 28/83/40
f 28/83/40 21/82/40 19/84/40
f 28/83/40 19/84/40 27/85/40
f 20/38/27 44/86/27 29/36/27
f 44/86/27 20/38/27 45/87/27
v 0.2 0 0.7
v 0.2 0 -0.3
v 0 0 0.7
v 0 0 -0.3
v 0.2 0.015 -0.3
v 0.2 0.015 0.7
v 0 0.015 0.7
v 0 0.015 -0.3
v 0.2 0.1 -0.3
v 0.2 0.1 0.7
v 0 0.1 -0.3
v 0 0.1 0.7
vn 0.4 0 0
vn 0 0 1
vn -0.4 0 0
vn 0 0 -1
vt -0.2 -0.7
vt -0.2 0.3
vt 0 -0.7
vt 0 0.3
vt -0.7 0.015
vt -0.7 0
vt 0.2 0
vt 0 0
vt 0.2 0.015
vt 0 0.015
vt -0.3 0
vt -0.3 0.015
vt 0.7 0
vt 0.7 0.015
vt -0.2 0
vt -0.2 0.015
vt -0.2 -0.3
vt -0.2 0.7
vt 0 -0.3
vt 0 0.7
vt 0 0.1
vt -0.2 0.1
vt -0.3 0.1
vt 0.7 0.1
vt 0.2 0.1
vt -0.7 0.1

usemtl border (Instance)
usemap border (Instance)
f 48/90/40 47/89/40 46/88/40
f 47/89/40 48/90/40 49/91/40
f 51/92/41 47/21/41 50/22/41
f 47/21/41 51/92/41 46/93/41
f 51/96/42 48/95/42 46/94/42
f 48/95/42 51/96/42 52/97/42
f 48/100/43 53/99/43 49/98/43
f 53/99/43 48/100/43 52/101/43
f 53/97/44 47/102/44 49/95/44
f 47/102/44 53/97/44 50/103/44

usemtl bricks (Instance)
usemap bricks (Instance)
f 56/106/28 55/105/28 54/104/28
f 55/105/28 56/106/28 57/107/28
f 56/108/44 50/103/44 53/97/44
f 50/103/44 56/108/44 54/109/44
f 52/101/43 56/110/43 53/99/43
f 56/110/43 52/101/43 57/111/43
f 55/112/42 52/97/42 51/96/42
f 52/97/42 55/112/42 57/108/42
f 55/113/41 50/22/41 54/63/41
f 50/22/41 55/113/41 51/92/41
v 0.2 0 1.2
v 0 0 1.2
v 0.2 0.015 1.2
v 0 0.015 1.2
v 0.2 0.1 1.2
v 0 0.1 1.2
vn 0 0 0.5
vn 0 0 -0.5
vt -0.2 -1.2
vt 0 -1.2
vt -1.2 0.015
vt -1.2 0
vt 1.2 0
vt 1.2 0.015
vt -0.2 1.2
vt 0 1.2
vt 1.2 0.1
vt -1.2 0.1

usemtl border (Instance)
usemap border (Instance)
f 59/115/40 46/88/40 58/114/40
f 46/88/40 59/115/40 48/90/40
f 60/116/41 46/93/41 51/92/41
f 46/93/41 60/116/41 58/117/41
f 60/96/45 59/95/45 58/94/45
f 59/95/45 60/96/45 61/97/45
f 59/118/43 52/101/43 48/100/43
f 52/101/43 59/118/43 61/119/43
f 52/97/46 46/102/46 48/95/46
f 46/102/46 52/97/46 51/103/46

usemtl bricks (Instance)
usemap bricks (Instance)
f 57/107/28 62/120/28 55/105/28
f 62/120/28 57/107/28 63/121/28
f 57/108/46 51/103/46 52/97/46
f 51/103/46 57/108/46 55/109/46
f 61/119/43 57/111/43 52/101/43
f 57/111/43 61/119/43 63/122/43
f 62/112/45 61/97/45 60/96/45
f 61/97/45 62/112/45 63/108/45
f 62/123/41 51/92/41 55/113/41
f 51/92/41 62/123/41 60/116/41
v -0.25 0 1.2
v 0.05000002 0 1.2
v -0.25 0 1.05
v 0.05000003 0 1.05
v 0.05000002 0.015 1.2
v -0.25 0.015 1.2
v -0.25 0.015 1.05
v 0.05000003 0.015 1.05
v 0.05000002 0.1 1.2
v -0.25 0.1 1.2
v 0.05000003 0.1 1.05
v -0.25 0.1 1.05
vn -2.980232E-08 0 0.3
vn -0.3 0 -2.980232E-08
vn 2.980232E-08 0 -0.3
vn 0.3 0 2.980232E-08
vt 0.25 -1.2
vt -0.05000002 -1.2
vt 0.25 -1.05
vt -0.05000004 -1.05
vt 0.05000002 0.015
vt 0.05000002 0
vt -0.25 0.015
vt -0.25 0
vt 1.05 0
vt 1.05 0.015
vt -0.05000004 0
vt -0.05000004 0.015
vt 0.25 0
vt 0.25 0.015
vt -1.05 0
vt -1.05 0.015
vt -0.05000002 1.2
vt 0.25 1.2
vt -0.05000004 1.05
vt 0.25 1.05
vt -1.05 0.1
vt -0.05000004 0.1
vt 0.25 0.1
vt 1.05 0.1
vt 0.05000002 0.1
vt -0.25 0.1

usemtl border (Instance)
usemap border (Instance)
f 66/126/40 65/125/40 64/124/40
f 65/125/40 66/126/40 67/127/40
f 69/130/47 65/129/47 68/128/47
f 65/129/47 69/130/47 64/131/47
f 69/119/48 66/132/48 64/118/48
f 66/132/48 69/119/48 70/133/48
f 66/136/49 71/135/49 67/134/49
f 71/135/49 66/136/49 70/137/49
f 71/139/50 65/117/50 67/138/50
f 65/117/50 71/139/50 68/116/50

usemtl bricks (Instance)
usemap bricks (Instance)
f 74/142/28 73/141/28 72/140/28
f 73/141/28 74/142/28 75/143/28
f 74/144/50 68/116/50 71/139/50
f 68/116/50 74/144/50 72/123/50
f 70/137/49 74/145/49 71/135/49
f 74/145/49 70/137/49 75/146/49
f 73/122/48 70/133/48 69/119/48
f 70/133/48 73/122/48 75/147/48
f 73/149/47 68/128/47 72/148/47
f 68/128/47 73/149/47 69/130/47
v -0.25 0 0.9
v 0.05000002 0 0.9
v -0.25 0 0.7499999
v 0.05000003 0 0.75
v 0.05000002 0.015 0.9
v -0.25 0.015 0.9
v -0.25 0.015 0.7499999
v 0.05000003 0.015 0.75
v 0.05000002 0.1 0.9
v -0.25 0.1 0.9
v 0.05000003 0.1 0.75
v -0.25 0.1 0.7499999
vt 0.25 -0.9
vt -0.05000002 -0.9
vt 0.25 -0.7499999
vt -0.05000004 -0.75
vt 0.9 0
vt 0.7499999 0
vt 0.9 0.015
vt 0.7499999 0.015
vt -0.75 0
vt -0.9 0
vt -0.75 0.015
vt -0.9 0.015
vt -0.05000002 0.9
vt 0.25 0.9
vt -0.05000004 0.75
vt 0.25 0.7499999
vt -0.75 0.1
vt -0.9 0.1
vt 0.9 0.1
vt 0.7499999 0.1

usemtl border (Instance)
usemap border (Instance)
f 78/152/40 77/151/40 76/150/40
f 77/151/40 78/152/40 79/153/40
f 81/130/47 77/129/47 80/128/47
f 77/129/47 81/130/47 76/131/47
f 81/156/48 78/155/48 76/154/48
f 78/155/48 81/156/48 82/157/48
f 78/136/49 83/135/49 79/134/49
f 83/135/49 78/136/49 82/137/49
f 83/160/50 77/159/50 79/158/50
f 77/159/50 83/160/50 80/161/50

usemtl bricks (Instance)
usemap bricks (Instance)
f 86/164/28 85/163/28 84/162/28
f 85/163/28 86/164/28 87/165/28
f 86/166/50 80/161/50 83/160/50
f 80/161/50 86/166/50 84/167/50
f 82/137/49 86/145/49 83/135/49
f 86/145/49 82/137/49 87/146/49
f 85/168/48 82/157/48 81/156/48
f 82/157/48 85/168/48 87/169/48
f 85/149/47 80/128/47 84/148/47
f 80/128/47 85/149/47 81/130/47
v -0.15 0 0.6
v 0.15 0 0.6
v -0.15 0 0.45
v 0.15 0 0.45
v 0.15 0.015 0.6
v -0.15 0.015 0.6
v -0.15 0.015 0.45
v 0.15 0.015 0.45
v 0.15 0.1 0.6
v -0.15 0.1 0.6
v 0.15 0.1 0.45
v -0.15 0.1 0.45
vt 0.15 -0.6
vt -0.15 -0.6
vt 0.15 -0.45
vt -0.15 -0.45
vt 0.15 0.015
vt 0.15 0
vt -0.15 0.015
vt -0.15 0
vt 0.6 0
vt 0.45 0
vt 0.6 0.015
vt 0.45 0.015
vt -0.15 0
vt -0.15 0.015
vt 0.15 0
vt 0.15 0.015
vt -0.45 0
vt -0.6 0
vt -0.45 0.015
vt -0.6 0.015
vt -0.15 0.6
vt 0.15 0.6
vt -0.15 0.45
vt 0.15 0.45
vt -0.45 0.1
vt -0.6 0.1
vt -0.15 0.1
vt 0.15 0.1
vt 0.6 0.1
vt 0.45 0.1
vt 0.15 0.1
vt -0.15 0.1

usemtl border (Instance)
usemap border (Instance)
f 90/172/40 89/171/40 88/170/40
f 89/171/40 90/172/40 91/173/40
f 93/176/47 89/175/47 92/174/47
f 89/175/47 93/176/47 88/177/47
f 93/180/48 90/179/48 88/178/48
f 90/179/48 93/180/48 94/181/48
f 90/184/49 95/183/49 91/182/49
f 95/183/49 90/184/49 94/185/49
f 95/188/50 89/187/50 91/186/50
f 89/187/50 95/188/50 92/189/50

usemtl bricks (Instance)
usemap bricks (Instance)
f 98/192/28 97/191/28 96/190/28
f 97/191/28 98/192/28 99/193/28
f 98/194/50 92/189/50 95/188/50
f 92/189/50 98/194/50 96/195/50
f 94/185/49 98/196/49 95/183/49
f 98/196/49 94/185/49 99/197/49
f 97/198/48 94/181/48 93/180/48
f 94/181/48 97/198/48 99/199/48
f 97/201/47 92/174/47 96/200/47
f 92/174/47 97/201/47 93/176/47
v -0.25 0 0.3
v 0.05000002 0 0.3
v -0.25 0 0.15
v 0.05000003 0 0.15
v 0.05000002 0.015 0.3
v -0.25 0.015 0.3
v -0.25 0.015 0.15
v 0.05000003 0.015 0.15
v 0.05000002 0.1 0.3
v -0.25 0.1 0.3
v 0.05000003 0.1 0.15
v -0.25 0.1 0.15
vt 0.25 -0.3
vt -0.05000002 -0.3
vt 0.25 -0.15
vt -0.05000004 -0.15
vt 0.3 0
vt 0.15 0
vt 0.3 0.015
vt 0.15 0.015
vt -0.15 0
vt -0.3 0
vt -0.15 0.015
vt -0.3 0.015
vt -0.05000002 0.3
vt 0.25 0.3
vt -0.05000004 0.15
vt 0.25 0.15
vt -0.15 0.1
vt -0.3 0.1
vt 0.3 0.1
vt 0.15 0.1

usemtl border (Instance)
usemap border (Instance)
f 102/204/40 101/203/40 100/202/40
f 101/203/40 102/204/40 103/205/40
f 105/130/47 101/129/47 104/128/47
f 101/129/47 105/130/47 100/131/47
f 105/208/48 102/207/48 100/206/48
f 102/207/48 105/208/48 106/209/48
f 102/136/49 107/135/49 103/134/49
f 107/135/49 102/136/49 106/137/49
f 107/212/50 101/211/50 103/210/50
f 101/211/50 107/212/50 104/213/50

usemtl bricks (Instance)
usemap bricks (Instance)
f 110/216/28 109/215/28 108/214/28
f 109/215/28 110/216/28 111/217/28
f 110/218/50 104/213/50 107/212/50
f 104/213/50 110/218/50 108/219/50
f 106/137/49 110/145/49 107/135/49
f 110/145/49 106/137/49 111/146/49
f 109/220/48 106/209/48 105/208/48
f 106/209/48 109/220/48 111/221/48
f 109/149/47 104/128/47 108/148/47
f 104/128/47 109/149/47 105/130/47
v -0.15 0 -0.2
v 0.15 0 -0.2
v -0.15 0 -0.35
v 0.15 0 -0.35
v 0.15 0.015 -0.2
v -0.15 0.015 -0.2
v -0.15 0.015 -0.35
v 0.15 0.015 -0.35
v 0.15 0.1 -0.2
v -0.15 0.1 -0.2
v 0.15 0.1 -0.35
v -0.15 0.1 -0.35
vt 0.15 0.2
vt -0.15 0.2
vt 0.15 0.3500001
vt -0.15 0.35
vt -0.2 0
vt -0.3500001 0
vt -0.2 0.015
vt -0.3500001 0.015
vt 0.35 0
vt 0.2 0
vt 0.35 0.015
vt 0.2 0.015
vt -0.15 -0.2
vt 0.15 -0.2
vt -0.15 -0.35
vt 0.15 -0.3500001
vt 0.35 0.1
vt 0.2 0.1
vt -0.2 0.1
vt -0.3500001 0.1

usemtl border (Instance)
usemap border (Instance)
f 114/224/40 113/223/40 112/222/40
f 113/223/40 114/224/40 115/225/40
f 117/176/47 113/175/47 116/174/47
f 113/175/47 117/176/47 112/177/47
f 117/228/48 114/227/48 112/226/48
f 114/227/48 117/228/48 118/229/48
f 114/184/49 119/183/49 115/182/49
f 119/183/49 114/184/49 118/185/49
f 119/232/50 113/231/50 115/230/50
f 113/231/50 119/232/50 116/233/50

usemtl bricks (Instance)
usemap bricks (Instance)
f 122/236/28 121/235/28 120/234/28
f 121/235/28 122/236/28 123/237/28
f 122/238/50 116/233/50 119/232/50
f 116/233/50 122/238/50 120/239/50
f 118/185/49 122/196/49 119/183/49
f 122/196/49 118/185/49 123/197/49
f 121/240/48 118/229/48 117/228/48
f 118/229/48 121/240/48 123/241/48
f 121/201/47 116/174/47 120/200/47
f 116/174/47 121/201/47 117/176/47
v 0.1198059 0.11 -0.8685266
v 0.1198059 0.11 -0.4
v -0.1198059 0.11 -0.8685266
v -0.1198059 0.11 -0.4
v 0.1198059 0.11 -0.9285265
v -0.1198059 0.11 -0.9285265
v 0.1157237 0.11 -0.9595346
v 0.103755 0.11 -0.9884295
v 0.0847156 0.11 -1.013242
v 0.05990297 0.11 -1.032282
v 0.03100806 0.11 -1.04425
v 8.92624E-10 0.11 -1.048333
v -0.03100806 0.11 -1.04425
v -0.05990297 0.11 -1.032282
v -0.0847156 0.11 -1.013242
v -0.103755 0.11 -0.9884295
v -0.1157237 0.11 -0.9595346
v 0.163003 0.1 -0.4
v 0.163003 0.13 -0.4
v 0.163003 0.1 -0.9285265
v 0.163003 0.13 -0.9285265
v -0.163003 0.13 -0.4
v -0.163003 0.1 -0.4
v -0.163003 0.13 -0.9285265
v -0.163003 0.1 -0.9285265
v -0.1198059 0.13 -0.4
v 0.1198059 0.13 -0.4
v 0.1198059 0.12 -0.9285265
v 0.1198059 0.12 -0.8685266
v -0.1198059 0.12 -0.9285265
v -0.1198059 0.12 -0.8685266
v -0.1198059 0.13 -0.9285265
v 0.1198059 0.13 -0.9285265
v 0.1411647 0.13 -1.010028
v 0.1152605 0.13 -1.043787
v 0.1157237 0.13 -0.9595346
v 0.103755 0.13 -0.9884295
v 0.08150151 0.13 -1.069691
v 0.0847156 0.13 -1.013242
v 0.05990297 0.13 -1.032282
v 0.04218829 0.13 -1.085975
v 0.03100806 0.13 -1.04425
v 1.214468E-09 0.13 -1.09153
v 8.92624E-10 0.13 -1.048333
v -0.04218828 0.13 -1.085975
v -0.03100806 0.13 -1.04425
v -0.05990297 0.13 -1.032282
v -0.08150151 0.13 -1.069691
v -0.0847156 0.13 -1.013242
v -0.1152605 0.13 -1.043787
v -0.103755 0.13 -0.9884295
v -0.1157237 0.13 -0.9595346
v -0.1411647 0.13 -1.010028
v -0.1574488 0.13 -0.9707148
v 0.1574488 0.13 -0.9707148
v 0.1574488 0.1 -0.9707148
v 0.1411647 0.1 -1.010028
v 0.1152605 0.1 -1.043787
v 0.08150151 0.1 -1.069691
v 0.04218829 0.1 -1.085975
v 1.214468E-09 0.1 -1.09153
v -0.04218828 0.1 -1.085975
v -0.08150151 0.1 -1.069691
v -0.1152605 0.1 -1.043787
v -0.1411647 0.1 -1.010028
v -0.1574488 0.1 -0.9707148
vn 0 1 0
vn 1 0 0
vn 0.9990494 0 -0.04359168
vn 0.9961922 0 -0.08718336
vn -1 0 0
vn -0.9990494 0 -0.04359168
vn -0.9961922 0 -0.08718336
vn 0.9978589 0 0.06540304
vn 0.9961923 0 0.08718324
vn -0.9994658 0 0.03268403
vn -0.9961922 0 0.08718336
vn 0.9914449 0 0.130526
vn 0.9808401 0 0.1948141
vn 0.9536498 0 0.3009185
vn 0.8871136 0 0.4615512
vn 0.8432717 0 0.5374874
vn 0.7071068 0 0.7071068
vn 0.7071068 0 0.7071068
vn 0.5374873 0 0.8432719
vn 0.4615507 0 0.8871138
vn 0.2588191 0 0.9659258
vn -0.2162224 0 0.9763441
vn -0.3009182 0 0.9536499
vn -0.4615507 0 0.8871139
vn -0.5374872 0 0.8432719
vn -0.7071068 0 0.7071067
vn -0.8871137 0 0.4615508
vn -0.8432719 0 0.5374872
vn -0.9808401 0 0.1948141
vn -0.9536499 0 0.3009182
vn -0.9914449 0 0.1305261
vn 0.9763442 0 -0.216222
vn 0.9536499 0 -0.3009182
vn 0.8871139 0 -0.4615508
vn 0.8432718 0 -0.5374873
vn 0.7071066 0 -0.7071069
vn 0.5374872 0 -0.8432719
vn 0.461551 0 -0.8871137
vn 0.3009187 0 -0.9536499
vn 0.2162225 0 -0.9763441
vn 0.04384214 0 -0.9990385
vn -0.04384215 0 -0.9990385
vn -0.2162225 0 -0.9763441
vn -0.3009186 0 -0.9536498
vn -0.461551 0 -0.8871137
vn -0.5374872 0 -0.8432718
vn -0.7071066 0 -0.7071069
vn -0.8871139 0 -0.4615508
vn -0.8432718 0 -0.5374873
vn -0.9763442 0 -0.216222
vn -0.9536499 0 -0.3009182
vt -0.1198059 -0.8685266
vt -0.1198059 -0.4
vt 0.1198059 -0.8685266
vt 0.1198059 -0.4
vt -0.1198059 -0.9285265
vt 0.1198059 -0.9285265
vt -0.1157237 -0.9595346
vt -0.103755 -0.9884295
vt -0.0847156 -1.013242
vt -0.05990297 -1.032282
vt -0.03100806 -1.04425
vt -8.92624E-10 -1.048333
vt 0.03100806 -1.04425
vt 0.05990297 -1.032282
vt 0.0847156 -1.013242
vt 0.103755 -0.9884295
vt 0.1157237 -0.9595346
vt 0.4 0.1
vt 0.4 0.13
vt 0.9285265 0.1
vt 0.9285265 0.13
vt -0.4 0.13
vt -0.4 0.1
vt -0.9285265 0.13
vt -0.9285265 0.1
vt -0.163003 0.13
vt -0.1198059 0.13
vt -0.163003 0.1
vt -0.1198059 0.11
vt 0.1198059 0.11
vt 0.163003 0.1
vt 0.163003 0.13
vt 0.1198059 0.13
vt 0.4 0.11
vt 0.8685266 0.11
vt 0.8685266 0.12
vt 0.9285265 0.12
vt -0.1198059 0.12
vt 0.1198059 0.12
vt -0.4 0.11
vt -0.8685266 0.12
vt -0.9285265 0.12
vt -0.8685266 0.11
vt -0.1411647 -1.010028
vt -0.1152605 -1.043787
vt -0.08150151 -1.069691
vt -0.04218829 -1.085975
vt -1.214468E-09 -1.09153
vt 0.04218828 -1.085975
vt 0.08150151 -1.069691
vt 0.1152605 -1.043787
vt 0.1411647 -1.010028
vt 0.163003 -0.4
vt 0.1574488 -0.9707148
vt 0.163003 -0.9285265
vt -0.163003 -0.9285265
vt -0.163003 -0.4
vt -0.1574488 -0.9707148
vt 0.9285265 0.11
vt 0.9595346 0.11
vt 0.9595346 0.13
vt 0.9884295 0.11
vt 0.9884295 0.13
vt 1.013242 0.11
vt 1.013242 0.13
vt -0.0847156 0.13
vt -0.05990297 0.13
vt -0.0847156 0.11
vt -0.05990297 0.11
vt -0.03100806 0.13
vt -0.03100806 0.11
vt 8.92624E-10 0.13
vt 8.92624E-10 0.11
vt 0.03100806 0.13
vt 0.03100806 0.11
vt 0.05990297 0.13
vt 0.05990297 0.11
vt 0.0847156 0.13
vt 0.0847156 0.11
vt -0.9884295 0.13
vt -0.9884295 0.11
vt -1.013242 0.13
vt -1.013242 0.11
vt -0.9595346 0.13
vt -0.9595346 0.11
vt -0.9285265 0.11
vt 0.9707148 0.1
vt 0.9707148 0.13
vt 1.010028 0.1
vt 1.010028 0.13
vt 1.043787 0.1
vt 1.043787 0.13
vt -0.1152605 0.13
vt -0.08150151 0.13
vt -0.1152605 0.1
vt -0.08150151 0.1
vt -0.04218829 0.13
vt -0.04218829 0.1
vt -1.214468E-09 0.13
vt -1.214468E-09 0.1
vt 0.04218828 0.13
vt 0.04218828 0.1
vt 0.08150151 0.13
vt 0.08150151 0.1
vt 0.1152605 0.13
vt 0.1152605 0.1
vt -1.010028 0.13
vt -1.010028 0.1
vt -1.043787 0.13
vt -1.043787 0.1
vt -0.9707148 0.13
vt -0.9707148 0.1

usemtl glass (Instance)
usemap glass (Instance)
f 126/244/51 125/243/51 124/242/51
f 125/243/51 126/244/51 127/245/51
f 130/248/51 129/247/51 128/246/51
f 129/247/51 130/248/51 131/249/51
f 129/247/51 131/249/51 132/250/51
f 129/247/51 132/250/51 133/251/51
f 129/247/51 133/251/51 134/252/51
f 129/247/51 134/252/51 135/253/51
f 129/247/51 135/253/51 136/254/51
f 129/247/51 136/254/51 137/255/51
f 129/247/51 137/255/51 138/256/51
f 129/247/51 138/256/51 139/257/51
f 129/247/51 139/257/51 140/258/51

usemtl element (Instance)
usemap element (Instance)
f 143/261/53 142/260/52 141/259/52
f 142/260/52 143/261/53 144/262/54
f 147/265/56 146/264/55 145/263/55
f 146/264/55 147/265/56 148/266/57
f 146/269/42 149/268/42 145/267/42
f 149/268/42 146/269/42 127/270/42
f 127/270/42 146/269/42 125/271/42
f 141/272/42 125/271/42 146/269/42
f 142/273/42 125/271/42 141/272/42
f 125/271/42 142/273/42 150/274/42
f 153/247/51 152/242/51 151/246/51
f 152/242/51 153/247/51 154/244/51
f 126/276/52 149/260/52 127/275/52
f 149/260/52 126/276/52 154/277/52
f 149/260/52 154/277/52 155/262/58
f 155/262/58 154/277/52 153/278/59
f 126/270/42 152/280/42 154/279/42
f 152/280/42 126/270/42 124/271/42
f 156/265/60 125/281/55 150/263/55
f 125/281/55 156/265/60 152/282/55
f 152/282/55 156/265/60 151/283/61
f 124/284/55 125/281/55 152/282/55
f 128/270/44 153/280/44 151/279/44
f 153/280/44 128/270/44 129/271/44
f 158/286/51 156/246/51 157/285/51
f 156/246/51 158/286/51 159/248/51
f 159/248/51 158/286/51 160/249/51
f 160/249/51 158/286/51 161/287/51
f 160/249/51 161/287/51 162/250/51
f 162/250/51 161/287/51 163/251/51
f 163/251/51 161/287/51 164/288/51
f 163/251/51 164/288/51 165/252/51
f 165/252/51 164/288/51 166/289/51
f 165/252/51 166/289/51 167/253/51
f 167/253/51 166/289/51 168/290/51
f 167/253/51 168/290/51 169/254/51
f 169/254/51 168/290/51 170/255/51
f 170/255/51 168/290/51 171/291/51
f 170/255/51 171/291/51 172/256/51
f 172/256/51 171/291/51 173/292/51
f 172/256/51 173/292/51 174/257/51
f 174/257/51 173/292/51 175/258/51
f 175/258/51 173/292/51 176/293/51
f 175/258/51 176/293/51 155/247/51
f 155/247/51 176/293/51 149/245/51
f 149/245/51 176/293/51 145/294/51
f 145/294/51 176/293/51 177/295/51
f 145/294/51 177/295/51 147/296/51
f 178/299/51 142/298/51 144/297/51
f 142/298/51 178/299/51 150/243/51
f 150/243/51 178/299/51 157/285/51
f 150/243/51 157/285/51 156/246/51
f 140/301/63 153/278/59 129/300/62
f 153/278/59 140/301/63 155/262/58
f 155/262/58 140/301/63 175/302/64
f 139/303/65 175/302/64 140/301/63
f 175/302/64 139/303/65 174/304/66
f 138/305/67 174/304/66 139/303/65
f 174/304/66 138/305/67 172/306/68
f 138/309/67 170/308/69 172/307/68
f 170/308/69 138/309/67 137/310/70
f 137/310/70 169/311/71 170/308/69
f 169/311/71 137/310/70 136/312/71
f 169/311/71 135/314/42 167/313/42
f 135/314/42 169/311/71 136/312/71
f 135/314/42 165/315/72 167/313/42
f 165/315/72 135/314/42 134/316/73
f 134/316/73 163/317/74 165/315/72
f 163/317/74 134/316/73 133/318/75
f 133/318/75 162/319/76 163/317/74
f 162/319/76 133/318/75 132/320/76
f 162/323/76 131/322/78 160/321/77
f 131/322/78 162/323/76 132/324/76
f 160/321/77 130/326/80 159/325/79
f 130/326/80 160/321/77 131/322/78
f 159/325/79 151/283/61 156/265/60
f 151/283/61 159/325/79 128/327/81
f 128/327/81 159/325/79 130/326/80
f 179/328/82 144/262/54 143/261/53
f 144/262/54 179/328/82 178/329/83
f 180/330/84 178/329/83 179/328/82
f 178/329/83 180/330/84 157/331/85
f 181/332/86 157/331/85 180/330/84
f 157/331/85 181/332/86 158/333/86
f 181/336/86 161/335/87 158/334/86
f 161/335/87 181/336/86 182/337/88
f 182/337/88 164/338/89 161/335/87
f 164/338/89 182/337/88 183/339/90
f 183/339/90 166/340/91 164/338/89
f 166/340/91 183/339/90 184/341/92
f 184/341/92 168/342/93 166/340/91
f 168/342/93 184/341/92 185/343/94
f 185/343/94 171/344/95 168/342/93
f 171/344/95 185/343/94 186/345/96
f 186/345/96 173/346/97 171/344/95
f 173/346/97 186/345/96 187/347/97
f 173/350/97 188/349/99 176/348/98
f 188/349/99 173/350/97 187/351/97
f 176/348/98 189/353/101 177/352/100
f 189/353/101 176/348/98 188/349/99
f 177/352/100 148/266/57 147/265/56
f 148/266/57 177/352/100 189/353/101
