# Made using Asset Forge (www.assetforge.io) version 1.3 

mtllib sugarpacket.model.mtl 

v 0.5 0 -0.5000001
v -0.5000001 0 -0.4999999
v 0.5000001 0 0.4999999
v -0.5 0 0.5000001
v -0.5000001 0.1 -0.4999999
v 0.5 0.1 -0.5000001
v 0.5000001 0.1 0.4999999
v -0.5 0.1 0.5000001
vn 0 -1 0
vn -1.192093E-07 0 -1
vn 1 0 -1.192093E-07
vn 1.192093E-07 0 1
vn -1 0 1.192093E-07
vn 0 1 0
vt -0.5 0.5000001
vt 0.5000001 0.5
vt -0.5000001 -0.5
vt 0.5 -0.5000001
vt 0.5000001 0.1
vt 0.5000001 0
vt -0.5 0.1
vt -0.5 0
vt 0.5000001 -0.5
vt -0.5 -0.5000001
vt 0.5 0.5000001
vt -0.5000001 0.5

usemtl customMaterial3
usemap customMaterial3
f 3/3/1 2/2/1 1/1/1
f 2/2/1 3/3/1 4/4/1
f 6/7/2 2/6/2 5/5/2
f 2/6/2 6/7/2 1/8/2
f 6/5/3 3/8/3 1/6/3
f 3/8/3 6/5/3 7/7/3
f 3/6/4 8/7/4 4/8/4
f 8/7/4 3/6/4 7/5/4
f 8/5/5 2/8/5 4/6/5
f 2/8/5 8/5/5 5/7/5

usemtl customMaterial2
usemap customMaterial2
f 8/11/6 6/10/6 5/9/6
f 6/10/6 8/11/6 7/12/6
v 0.5 0.03749999 -0.5
v 0.5 0.03749999 0.5
v 0.5625 0.09999999 -0.5
v 0.5625 0.09999999 0.5
v -0.5625 0.09999999 -0.5
v -0.5625 0.09999999 0.5
v -0.5 0.03749999 -0.5
v -0.5 0.03749999 0.5
v 0.5 0.1625 0.5
v 0.5 0.1625 -0.5
v -0.5 0.1625 0.5
v -0.5 0.1625 -0.5
v -0.3399026 0.1625001 -0.05563647
v -0.3190125 0.1625 -0.2775033
v -0.282132 0.1625 -0.1424484
v -0.3199758 0.1625 0.08007944
v -0.1933927 0.1624999 0.2400573
v -0.07331815 0.1625 0.3323092
v -0.2396886 0.1625 0.1466205
v -0.1214214 0.1625 0.244639
v 0.03187406 0.1625 0.2543979
v 0.1359407 0.1625 0.2610228
v 0.1758942 0.1624999 0.2009847
v 0.2758942 0.1624999 0.2009848
v 0.318764 0.1625 -0.01370546
v -0.1570793 0.1625 -0.3303648
v 0.04475716 0.1625 -0.36
v -0.05301271 0.1625 -0.3237398
v 0.1002828 0.1625 -0.313981
v 0.172254 0.1625 -0.3093992
v 0.21855 0.1625 -0.2159624
v 0.2988371 0.1625 -0.1494214
v 0.2867463 0.1625 -0.07832521
v 0.2609933 0.1625 0.07310641
v -0.1970328 0.1625 -0.2703267
v -0.3078849 0.1625 0.008983254
v 0.2609933 0.03749999 0.07310641
v 0.2758942 0.03749993 0.2009848
v 0.318764 0.03749996 -0.01370546
v 0.1758942 0.03749993 0.2009847
v 0.1359407 0.03749999 0.2610228
v 0.03187406 0.03749999 0.2543979
v -0.07331815 0.03749999 0.3323092
v -0.1933927 0.03749993 0.2400573
v -0.3199758 0.03749999 0.08007944
v -0.3399026 0.03749999 -0.05563647
v -0.3190125 0.03749999 -0.2775033
v -0.1570793 0.03749999 -0.3303648
v -0.1970328 0.03749999 -0.2703267
v 0.04475716 0.03749999 -0.36
v -0.05301271 0.03749999 -0.3237398
v 0.1002828 0.03750002 -0.313981
v 0.172254 0.03749999 -0.3093992
v 0.21855 0.03750002 -0.2159624
v 0.2988371 0.03750002 -0.1494214
v -0.2396886 0.03749999 0.1466205
v 0.2867463 0.03749999 -0.07832521
v -0.282132 0.03749999 -0.1424484
v -0.3078849 0.03749999 0.008983254
v -0.1214214 0.03749999 0.244639
vn 0.7071068 -0.7071068 0
vn -0.7071068 -0.7071068 0
vn 0.7071068 0.7071068 0
vn 0 0 1
vn 0 0 -1
vn -0.7071068 0.7071068 0
vn 0.06353192 0 -0.9979798
vn -0.83251 0 -0.55401
vn -0.9932795 0 0.1157402
vn -0.8325098 0 -0.5540102
vn -0.8960417 0 0.44397
vn -0.9858456 0 -0.1676559
vn -0.6381171 0 0.7699394
vn -0.8960418 0 0.4439697
vn -0.06353187 0 0.9979798
vn 0.3477284 0 0.9375953
vn -0.06353192 0 0.9979798
vn 0.83251 0 0.55401
vn -0.05873241 0 0.9982737
vn 0.9646779 0 -0.2634319
vn 0.8325101 0 0.55401
vn 0.8960418 0 -0.4439698
vn 0.9858456 0 0.1676559
vn 0.6381171 0 -0.7699394
vn 0.8960417 0 -0.4439697
vn 0.06353221 0 -0.9979798
vn 0.8767024 0 -0.4810331
vn -0.5951843 0 -0.8035893
vt -0.5 0.5
vt -0.5 -0.5
vt -0.5625 0.5
vt -0.5625 -0.5
vt 0.5625 0.5
vt 0.5625 -0.5
vt 0.5 0.5
vt 0.5 -0.5
vt -0.5 0.1625
vt 0.5 0.1625
vt -0.5625 0.09999999
vt 0.5625 0.09999999
vt -0.5 0.03749999
vt 0.5 0.03749999
vt 0.3399026 -0.05563647
vt 0.3190125 -0.2775033
vt 0.282132 -0.1424484
vt 0.3199758 0.08007944
vt 0.1933927 0.2400573
vt 0.07331815 0.3323092
vt 0.2396886 0.1466205
vt 0.1214214 0.244639
vt -0.03187406 0.2543979
vt -0.1359407 0.2610228
vt -0.1758942 0.2009848
vt -0.2758942 0.2009848
vt -0.318764 -0.01370546
vt 0.1570793 -0.3303648
vt -0.04475716 -0.36
vt 0.05301271 -0.3237398
vt -0.1002828 -0.313981
vt -0.172254 -0.3093992
vt -0.21855 -0.2159624
vt -0.2988371 -0.1494214
vt -0.2867463 -0.07832521
vt -0.2609933 0.07310641
vt 0.1970328 -0.2703267
vt 0.3078849 0.008983254
vt -0.2609933 -0.07310641
vt -0.2758942 -0.2009848
vt -0.318764 0.01370546
vt -0.1758942 -0.2009848
vt -0.1359407 -0.2610228
vt -0.03187406 -0.2543979
vt 0.07331815 -0.3323092
vt 0.1933927 -0.2400573
vt 0.3199758 -0.08007944
vt 0.3399026 0.05563647
vt 0.3190125 0.2775033
vt 0.1570793 0.3303648
vt 0.1970328 0.2703267
vt -0.04475716 0.36
vt 0.05301271 0.3237398
vt -0.1002828 0.313981
vt -0.172254 0.3093992
vt -0.21855 0.2159624
vt -0.2988371 0.1494214
vt 0.2396886 -0.1466205
vt -0.2867463 0.07832521
vt 0.282132 0.1424484
vt 0.3078849 -0.008983254
vt 0.1214214 -0.244639
vt -0.1359407 0.1625
vt -0.03187406 0.1625
vt -0.1359407 0.03749999
vt -0.03187406 0.03749999
vt 0.2009848 0.1625
vt 0.2610228 0.1625
vt 0.2009848 0.03749999
vt 0.2610228 0.03749999
vt -0.1758942 0.1625
vt -0.1758942 0.03749999
vt -0.2758942 0.1625
vt -0.2758942 0.03749999
vt 0.07310641 0.1625
vt 0.07310641 0.03749999
vt -0.01370546 0.1625
vt -0.01370546 0.03749999
vt -0.07832521 0.1625
vt -0.07832521 0.03749999
vt -0.1494214 0.1625
vt -0.1494214 0.03749999
vt 0.2988371 0.1625
vt 0.2988371 0.03749999
vt 0.21855 0.1625
vt 0.21855 0.03749999
vt -0.3093992 0.1625
vt -0.2159624 0.1625
vt -0.3093992 0.03749999
vt -0.2159624 0.03749999
vt 0.172254 0.1625
vt 0.172254 0.03749999
vt 0.1002828 0.1625
vt 0.1002828 0.03749999
vt 0.04475716 0.1625
vt 0.04475716 0.03749999
vt -0.05301271 0.1625
vt -0.05301271 0.03749999
vt -0.1570793 0.1625
vt -0.1570793 0.03749999
vt 0.3303648 0.1625
vt 0.3303648 0.03749999
vt 0.2703267 0.1625
vt 0.2703267 0.03749999
vt -0.3190125 0.1625
vt -0.1970328 0.1625
vt -0.3190125 0.03749999
vt -0.1970328 0.03749999
vt 0.2775033 0.1625
vt 0.2775033 0.03749999
vt 0.1424484 0.1625
vt 0.1424484 0.03749999
vt 0.05563647 0.1625
vt 0.05563647 0.03749999
vt -0.008983254 0.1625
vt -0.008983254 0.03749999
vt -0.08007944 0.1625
vt -0.08007944 0.03749999
vt 0.2396886 0.1625
vt 0.3199758 0.1625
vt 0.2396886 0.03749999
vt 0.3199758 0.03749999
vt -0.1466205 0.1625
vt -0.1466205 0.03749999
vt -0.2400573 0.1625
vt -0.2400573 0.03749999
vt 0.1214214 0.1625
vt 0.1933927 0.1625
vt 0.1214214 0.03749999
vt 0.1933927 0.03749999
vt -0.244639 0.1625
vt -0.244639 0.03749999
vt -0.3323092 0.1625
vt -0.3323092 0.03749999
vt 0.07331815 0.1625
vt 0.07331815 0.03749999

usemtl customMaterial3
usemap customMaterial3
f 11/15/7 10/14/7 9/13/7
f 10/14/7 11/15/7 12/16/7
f 15/19/8 14/18/8 13/17/8
f 14/18/8 15/19/8 16/20/8
f 12/15/9 18/14/9 17/13/9
f 18/14/9 12/15/9 11/16/9
f 14/23/10 17/22/10 19/21/10
f 17/22/10 14/23/10 12/24/10
f 12/24/10 14/23/10 16/25/10
f 12/24/10 16/25/10 10/26/10
f 11/23/11 20/22/11 18/21/11
f 20/22/11 11/23/11 13/24/11
f 13/24/11 11/23/11 9/25/11
f 13/24/11 9/25/11 15/26/11
f 19/19/12 13/18/12 14/17/12
f 13/18/12 19/19/12 20/20/12
f 23/29/6 22/28/6 21/27/6
f 22/28/6 20/20/6 21/27/6
f 20/20/6 24/30/6 21/27/6
f 19/19/6 24/30/6 20/20/6
f 24/30/6 19/19/6 25/31/6
f 25/31/6 19/19/6 26/32/6
f 26/32/6 19/19/6 17/13/6
f 24/30/6 25/31/6 27/33/6
f 25/31/6 26/32/6 28/34/6
f 26/32/6 17/13/6 29/35/6
f 29/35/6 17/13/6 30/36/6
f 30/36/6 17/13/6 31/37/6
f 31/37/6 17/13/6 32/38/6
f 32/38/6 17/13/6 33/39/6
f 34/40/6 20/20/6 22/28/6
f 20/20/6 34/40/6 18/14/6
f 18/14/6 33/39/6 17/13/6
f 18/14/6 34/40/6 35/41/6
f 35/41/6 34/40/6 36/42/6
f 18/14/6 35/41/6 37/43/6
f 18/14/6 37/43/6 38/44/6
f 18/14/6 38/44/6 39/45/6
f 18/14/6 39/45/6 40/46/6
f 18/14/6 40/46/6 33/39/6
f 33/39/6 40/46/6 41/47/6
f 33/39/6 42/48/6 32/38/6
f 34/40/6 22/28/6 43/49/6
f 44/50/6 21/27/6 24/30/6
f 47/53/1 46/52/1 45/51/1
f 10/14/1 46/52/1 47/53/1
f 10/14/1 48/54/1 46/52/1
f 10/14/1 49/55/1 48/54/1
f 10/14/1 50/56/1 49/55/1
f 10/14/1 51/57/1 50/56/1
f 16/20/1 51/57/1 10/14/1
f 51/57/1 16/20/1 52/58/1
f 52/58/1 16/20/1 53/59/1
f 53/59/1 16/20/1 54/60/1
f 16/20/1 55/61/1 54/60/1
f 15/19/1 55/61/1 16/20/1
f 55/61/1 15/19/1 56/62/1
f 56/62/1 15/19/1 9/13/1
f 10/14/1 47/53/1 9/13/1
f 55/61/1 56/62/1 57/63/1
f 56/62/1 9/13/1 58/64/1
f 56/62/1 58/64/1 59/65/1
f 58/64/1 9/13/1 60/66/1
f 60/66/1 9/13/1 61/67/1
f 61/67/1 9/13/1 62/68/1
f 62/68/1 9/13/1 63/69/1
f 63/69/1 9/13/1 47/53/1
f 52/58/1 53/59/1 64/70/1
f 47/53/1 65/71/1 63/69/1
f 66/72/1 54/60/1 55/61/1
f 67/73/1 53/59/1 54/60/1
f 51/57/1 52/58/1 68/74/1
f 49/77/13 29/76/13 30/75/13
f 29/76/13 49/77/13 50/78/13
f 48/81/14 30/80/14 31/79/14
f 30/80/14 48/81/14 49/82/14
f 32/85/11 48/84/11 31/83/11
f 48/84/11 32/85/11 46/86/11
f 45/88/15 32/79/15 42/87/15
f 32/79/15 45/88/15 46/81/15
f 47/90/16 42/87/16 33/89/16
f 42/87/16 47/90/16 45/88/16
f 65/92/17 33/89/17 41/91/17
f 33/89/17 65/92/17 47/90/17
f 63/94/18 41/91/18 40/93/18
f 41/91/18 63/94/18 65/92/18
f 39/97/19 63/96/19 40/95/19
f 63/96/19 39/97/19 62/98/19
f 61/101/20 39/100/20 38/99/20
f 39/100/20 61/101/20 62/102/20
f 37/105/21 61/104/21 38/103/21
f 61/104/21 37/105/21 60/106/21
f 35/107/19 60/106/19 37/105/19
f 60/106/19 35/107/19 58/108/19
f 36/109/22 58/108/22 35/107/22
f 58/108/22 36/109/22 59/110/22
f 34/111/23 59/110/23 36/109/23
f 59/110/23 34/111/23 56/112/23
f 43/115/24 56/114/24 34/113/24
f 56/114/24 43/115/24 57/116/24
f 55/119/25 43/118/25 22/117/25
f 43/118/25 55/119/25 57/120/25
f 23/123/26 55/122/26 22/121/26
f 55/122/26 23/123/26 66/124/26
f 21/125/27 66/124/27 23/123/27
f 66/124/27 21/125/27 54/126/27
f 44/127/28 54/126/28 21/125/28
f 54/126/28 44/127/28 67/128/28
f 24/129/29 67/128/29 44/127/29
f 67/128/29 24/129/29 53/130/29
f 64/133/30 24/132/30 27/131/30
f 24/132/30 64/133/30 53/134/30
f 25/137/31 64/136/31 27/135/31
f 64/136/31 25/137/31 52/138/31
f 68/141/32 25/140/32 28/139/32
f 25/140/32 68/141/32 52/142/32
f 26/145/33 68/144/33 28/143/33
f 68/144/33 26/145/33 51/146/33
f 29/76/34 51/148/34 26/147/34
f 51/148/34 29/76/34 50/78/34
